<mxfile host="app.diagrams.net" modified="2023-04-18T15:39:49.779Z" agent="Mozilla/5.0 (X11; Linux x86_64) AppleWebKit/537.36 (KHTML, like Gecko) Chrome/112.0.0.0 Safari/537.36" etag="FedxeGJDarodcUYNhb3n" version="21.1.8" type="github" pages="4">
  <diagram name="requisitos e funcionalidades" id="45IemXz6j9i4KKmDaBbg">
    <mxGraphModel dx="838" dy="495" grid="1" gridSize="10" guides="1" tooltips="1" connect="1" arrows="1" fold="1" page="1" pageScale="1" pageWidth="827" pageHeight="1169" math="0" shadow="0">
      <root>
        <mxCell id="0" />
        <mxCell id="1" parent="0" />
        <mxCell id="JATrlw67HcKR4ToxlkPX-1" value="&lt;h1&gt;Requisitos&lt;/h1&gt;&lt;p&gt;&lt;/p&gt;&lt;ol&gt;&lt;li&gt;&amp;nbsp;Linguagem de programação:&lt;/li&gt;&lt;ul&gt;&lt;li&gt;&lt;span style=&quot;background-color: initial;&quot;&gt;Python 3.10.&lt;/span&gt;&lt;/li&gt;&lt;/ul&gt;&lt;li&gt;Bibliotecas:&lt;/li&gt;&lt;ul&gt;&lt;li&gt;&lt;span style=&quot;background-color: initial;&quot;&gt;Tkinter;&lt;/span&gt;&lt;/li&gt;&lt;li&gt;&lt;span style=&quot;background-color: initial;&quot;&gt;Timer;&lt;/span&gt;&lt;/li&gt;&lt;li&gt;&lt;span style=&quot;background-color: initial;&quot;&gt;Adafruit_CircuitPython_Fingerprint.&lt;br&gt;&lt;/span&gt;&lt;/li&gt;&lt;/ul&gt;&lt;li&gt;Hardware&lt;/li&gt;&lt;ul&gt;&lt;li&gt;PC para gestão do painel;&lt;/li&gt;&lt;li&gt;PC totem para acesso à Ordem do Dia;&lt;/li&gt;&lt;li&gt;Access Point para acesso individual por App;&lt;/li&gt;&lt;li&gt;Dispositivo de leitura biométrica (aproveitamento ou aquisição de módulo Arduino).&lt;/li&gt;&lt;/ul&gt;&lt;/ol&gt;&lt;p&gt;&lt;/p&gt;" style="text;html=1;strokeColor=none;fillColor=none;spacing=5;spacingTop=-20;whiteSpace=wrap;overflow=hidden;rounded=0;" parent="1" vertex="1">
          <mxGeometry x="90" y="70" width="340" height="350" as="geometry" />
        </mxCell>
        <mxCell id="JATrlw67HcKR4ToxlkPX-4" value="&lt;h1&gt;Funcionalidades&lt;/h1&gt;&lt;p&gt;&lt;/p&gt;&lt;ol&gt;&lt;li&gt;Cadastro de usuários;&lt;/li&gt;&lt;li&gt;Níveis de acesso de usuários;&lt;/li&gt;&lt;li&gt;Cronômetro;&lt;/li&gt;&lt;li&gt;Registro de presença dos Edís:&lt;/li&gt;&lt;ul&gt;&lt;li&gt;Pelo próprio Edil;&lt;/li&gt;&lt;li&gt;Por funcionário habilitado por login.&lt;/li&gt;&lt;/ul&gt;&lt;li&gt;Tela de gestão;&lt;/li&gt;&lt;li&gt;Tela do painel;&lt;/li&gt;&lt;li&gt;Registro de votação;&lt;/li&gt;&lt;ul&gt;&lt;li&gt;&lt;span style=&quot;background-color: initial;&quot;&gt;Pelo próprio Edil;&lt;/span&gt;&lt;/li&gt;&lt;li&gt;&lt;span style=&quot;background-color: initial;&quot;&gt;Por funcionário habilitado por login.&lt;/span&gt;&lt;/li&gt;&lt;/ul&gt;&lt;li&gt;Cálculo do Quórum através do número de vereadores cadastrados com status ativo;&lt;/li&gt;&lt;li&gt;Leitura biométrica (aproveitamento de equipamento ou adquirindo novo módulo de leitura);&lt;/li&gt;&lt;li&gt;Nomeação das sessões automaticamente;&lt;/li&gt;&lt;li style=&quot;border-color: var(--border-color);&quot;&gt;Nomeação das sessões manualmente;&lt;/li&gt;&lt;li style=&quot;border-color: var(--border-color);&quot;&gt;Sistema baseado em módulos;&lt;/li&gt;&lt;li style=&quot;border-color: var(--border-color);&quot;&gt;Registro das sessões em banco de dados;&lt;/li&gt;&lt;li style=&quot;border-color: var(--border-color);&quot;&gt;Relatórios:&lt;/li&gt;&lt;ul&gt;&lt;li style=&quot;border-color: var(--border-color);&quot;&gt;Presença;&lt;/li&gt;&lt;li style=&quot;border-color: var(--border-color);&quot;&gt;Votações;&lt;/li&gt;&lt;li style=&quot;border-color: var(--border-color);&quot;&gt;Gráficos.&lt;/li&gt;&lt;/ul&gt;&lt;/ol&gt;&lt;div&gt;&lt;br&gt;&lt;/div&gt;&lt;div&gt;&lt;br&gt;&lt;/div&gt;&lt;div&gt;&lt;br&gt;&lt;/div&gt;&lt;div&gt;&lt;br&gt;&lt;/div&gt;&lt;div&gt;&lt;br&gt;&lt;/div&gt;&lt;div&gt;&lt;br&gt;&lt;/div&gt;&lt;div&gt;OBS: adequação com o regimento interno da Casa.&lt;/div&gt;&lt;p&gt;&lt;/p&gt;" style="text;html=1;strokeColor=none;fillColor=none;spacing=5;spacingTop=-20;whiteSpace=wrap;overflow=hidden;rounded=0;" parent="1" vertex="1">
          <mxGeometry x="530" y="70" width="340" height="620" as="geometry" />
        </mxCell>
      </root>
    </mxGraphModel>
  </diagram>
  <diagram id="kO1BRVCHcmrDBPM0cbuH" name="Fluxograma">
    <mxGraphModel dx="838" dy="495" grid="1" gridSize="10" guides="1" tooltips="1" connect="1" arrows="1" fold="1" page="1" pageScale="1" pageWidth="827" pageHeight="1169" math="0" shadow="0">
      <root>
        <mxCell id="0" />
        <mxCell id="1" parent="0" />
      </root>
    </mxGraphModel>
  </diagram>
  <diagram id="B_FyXgWNFQOXzVU2opzj" name="telas - retaguarda">
    <mxGraphModel dx="838" dy="495" grid="1" gridSize="10" guides="1" tooltips="1" connect="1" arrows="1" fold="1" page="1" pageScale="1" pageWidth="827" pageHeight="1169" math="0" shadow="0">
      <root>
        <mxCell id="0" />
        <mxCell id="1" parent="0" />
        <mxCell id="LyQwK9p2G28g45eBazeQ-1" value="CMFSA - Gestão" style="strokeWidth=1;shadow=0;dashed=0;align=center;html=1;shape=mxgraph.mockup.containers.window;align=left;verticalAlign=top;spacingLeft=8;strokeColor2=#008cff;strokeColor3=#c4c4c4;fontColor=#666666;mainText=;fontSize=17;labelBackgroundColor=none;whiteSpace=wrap;" parent="1" vertex="1">
          <mxGeometry x="140" y="90" width="1020" height="650" as="geometry" />
        </mxCell>
        <mxCell id="LyQwK9p2G28g45eBazeQ-2" value="&lt;b&gt;&lt;font style=&quot;font-size: 15px;&quot;&gt;Tempo&lt;/font&gt;&lt;br&gt;&lt;font style=&quot;font-size: 24px;&quot;&gt;00:00&lt;/font&gt;&lt;/b&gt;" style="text;html=1;strokeColor=#36393d;fillColor=#eeeeee;align=center;verticalAlign=middle;whiteSpace=wrap;rounded=1;" parent="1" vertex="1">
          <mxGeometry x="1010" y="650" width="90" height="50" as="geometry" />
        </mxCell>
      </root>
    </mxGraphModel>
  </diagram>
  <diagram id="ZQBFcpW1dO7Ns_XCAuKK" name="telas - painel">
    <mxGraphModel dx="838" dy="434" grid="1" gridSize="10" guides="1" tooltips="1" connect="1" arrows="1" fold="1" page="1" pageScale="1" pageWidth="827" pageHeight="1169" math="0" shadow="0">
      <root>
        <mxCell id="0" />
        <mxCell id="1" parent="0" />
        <mxCell id="9RT2j0kjuluT_V83uVlx-1" value="" style="rounded=0;whiteSpace=wrap;html=1;" parent="1" vertex="1">
          <mxGeometry x="70" y="40" width="700" height="390" as="geometry" />
        </mxCell>
        <mxCell id="9RT2j0kjuluT_V83uVlx-2" value="&lt;b&gt;&lt;font style=&quot;font-size: 15px;&quot;&gt;Tempo&lt;/font&gt;&lt;br&gt;&lt;font style=&quot;font-size: 24px;&quot;&gt;00:00&lt;/font&gt;&lt;/b&gt;" style="text;html=1;strokeColor=#36393d;fillColor=#eeeeee;align=center;verticalAlign=middle;whiteSpace=wrap;rounded=1;arcSize=6;" parent="1" vertex="1">
          <mxGeometry x="650" y="350" width="90" height="50" as="geometry" />
        </mxCell>
        <mxCell id="9RT2j0kjuluT_V83uVlx-3" value="Nome do Edil" style="text;html=1;strokeColor=none;fillColor=none;align=left;verticalAlign=middle;whiteSpace=wrap;rounded=0;" parent="1" vertex="1">
          <mxGeometry x="180" y="76" width="100" height="30" as="geometry" />
        </mxCell>
        <mxCell id="qZJ-vaLKK2MRvVnL0MQR-1" value="" style="verticalLabelPosition=bottom;shadow=0;dashed=0;align=center;html=1;verticalAlign=top;strokeWidth=1;shape=mxgraph.mockup.containers.userMale;strokeColor=#666666;strokeColor2=#008cff;aspect=fixed;" vertex="1" parent="1">
          <mxGeometry x="120" y="70" width="40" height="40" as="geometry" />
        </mxCell>
        <mxCell id="qZJ-vaLKK2MRvVnL0MQR-2" value="" style="verticalLabelPosition=bottom;shadow=0;dashed=0;align=center;html=1;verticalAlign=top;strokeWidth=1;shape=mxgraph.mockup.containers.userFemale;strokeColor=#666666;strokeColor2=#008cff;aspect=fixed;" vertex="1" parent="1">
          <mxGeometry x="120" y="120" width="40" height="40" as="geometry" />
        </mxCell>
        <mxCell id="qZJ-vaLKK2MRvVnL0MQR-3" value="" style="shape=image;verticalLabelPosition=bottom;labelBackgroundColor=default;verticalAlign=top;aspect=fixed;imageAspect=0;image=data:image/jpeg,/9j/4AAQSkZJRgABAQAAAQABAAD/2wCEAAkGBwgHBgkIBwgKCgkLDRYPDQwMDRsUFRAWIB0iIiAdHx8kKDQsJCYxJx8fLT0tMTU3Ojo6Iys/RD84QzQ5OjcBCgoKDQwNGg8PGjclHyU3Nzc3Nzc3Nzc3Nzc3Nzc3Nzc3Nzc3Nzc3Nzc3Nzc3Nzc3Nzc3Nzc3Nzc3Nzc3Nzc3N//AABEIAFAAUAMBEQACEQEDEQH/xAAbAAEAAgMBAQAAAAAAAAAAAAAABQYDBAcCCP/EAD0QAAEEAQIEAAgKCwEAAAAAAAEAAgMEEQUGBxIhMRMUUWFxgZGhFjJBQlJygrHB0SIjMzRDRVN0ksLSCP/EABsBAQADAQEBAQAAAAAAAAAAAAACAwQBBQYH/8QAMBEAAgIAAwUFBwUAAAAAAAAAAAECAwQFERIhMUGRFDJRgaEGEyJCUnHhFkNh0fD/2gAMAwEAAhEDEQA/AO4oAgCAIAgCAIAgCAIAgCAIAgCAIAgCAIAgCAIAgCAh6esR3Nx3dPgdzMqQsMhHYPJPT1ABVqac3HwNdmFlXh4Wy+ZvT7EwrDIEAQBAEAQBAVze+8dP2XpsN7Uop5WTTeCYyAAuJwTnqR06ICg6nxhh1nT3QbdqXK873crpbDWjlGPm4J6+f5FnxFmxE9bK8LXZJ2292Jp7B3/oGjV9UY6K5YsxROszzsa3kc1pAw0l2SSXdyuYatxTlLixm2PWLtSh3Y8Cdpcc9q2JhHYh1Go0n9pLCHAf4uJ9y0nkkpu3iroO2LNSGaOzcFqu2xHLU5HNLHE4OS4d8IDxtni5tncGow0IzaqWZ3ckTbMYAc75BkEgH0oC/oAgCAIDhnH6w7U9zbe29E/q4hzmj6Ujw1v3H2oDltVsp5tIpfvFm54u3zgkD39B7VTKvasUnyN8cRsYJ1Li5emh4jLKlXXoon8zXcsDHfSb4UH/AEVxgJSfQacPC+trz2kXp9VdDG/mPWIMORjt3HdAVt9x1mWoLrnyQ12tiAB6iMOJwPaUBf8AaGk1d78SRe0aCrpOnV7EdnxQSAPDWY+K0d8kdcdBlAfTKAIAgMTrMDc800YI8rgqZ4mmvvzS80TVc3wRwF9mPcX/AKBZLzsdWp2cB3cAQt/7CWYiqqv3s5aR8TihJvRLeQHDunE7fOoalPgQaSyxbye3MMhnvOfUo24mqlRc33ty/kKEnrpyKEJCIzGOziCfVn81o0IlkbqOp7l0nRdqadSyym+RzRGSTI97sl7vIBlVXXV0Qdlj0SOqLk9EaugXKu294V7dmM3K9C0SWsIHheUkAjPnwVZF7STRwtvCWtZ1biSNchiFSlDNNPKR0YznDsRg/aHTyBU3YqijRWzS18ScYSl3VqfSbbMDvizRn0OC5XiqLO5NPzQdc1xRlWggY5yWwvc3uGkhRm2oto7HfJI5sNXp0GN8akPO/rhoySvz7sduIesEe7jsTXhtNs1Gbi0iGYy1qGJTnMjY2tJ9fdbFkuLnHSdi0+7Z85b7RYWEvhg30R5h3FUZ4RtfSoWCQYfgAc48+B1Vksksejla93+8TJ+o4yfw1ev4PbNQpu/lGnj0wA/guPK5L92XUsjm8pfIjbg1bwAIr1q0IPcRx8v3Kp5XCT+KTfmWLMrOSRpS2K4JI0+hn+3atEcAvrl1ZCWaWrkuhjduCzAzkijrtYOzWx4A9isWTUS3yb6mWefYmHBLp+TAdy25HNY6vE8kjDQCCfMrq8kojJNNnK/ajFcNhev9nYYi4xML28ri0ZHkK+nR6qba3nojKHTmPEXR79nX6bNM06aWN1f+DH+i08xzk9h3HdYL6ZbS2FuKb9qx6PeR9XYO4JiC+KtXB/qzZPsblWQqnpvPIsymU5a66EvV4b2s5tatE3zRQZ95Ks9wnxZ2OTJcZEtX4fU2D9dqNyT0crR9yj2WDNcMurjzZvM2VpDQOfxl/wBac/gnZKvAvWDqMvwM0H51Mu+tM8/ipqitcjvY6ecR8C9unvpkR+0781P3cfA52LD/AEoyU9p6HStR2qunsjmjOWO5nHB8uCcIoRT1RKOEojLaUVqTamaAgCAIAgCAIAgCAIAgCAIAgCAIAgCAIAgCA//Z;" vertex="1" parent="1">
          <mxGeometry x="280" y="75" width="40" height="40" as="geometry" />
        </mxCell>
        <mxCell id="qZJ-vaLKK2MRvVnL0MQR-4" value="" style="shape=image;verticalLabelPosition=bottom;labelBackgroundColor=default;verticalAlign=top;aspect=fixed;imageAspect=0;image=data:image/jpeg,/9j/4AAQSkZJRgABAQAAAQABAAD/2wCEAAkGBwgHBgkIBwgKCgkLDRYPDQwMDRsUFRAWIB0iIiAdHx8kKDQsJCYxJx8fLT0tMTU3Ojo6Iys/RD84QzQ5OjcBCgoKDQwNGg8PGjclHyU3Nzc3Nzc3Nzc3Nzc3Nzc3Nzc3Nzc3Nzc3Nzc3Nzc3Nzc3Nzc3Nzc3Nzc3Nzc3Nzc3N//AABEIAFAAUAMBEQACEQEDEQH/xAAbAAEAAgMBAQAAAAAAAAAAAAAABQYDBAcCCP/EAD0QAAEEAQIEAAgKCwEAAAAAAAEAAgMEEQUGBxIhMRMUUWFxgZGhFjJBQlJygrHB0SIjMzRDRVN0ksLSCP/EABsBAQADAQEBAQAAAAAAAAAAAAACAwQBBQYH/8QAMBEAAgIAAwUFBwUAAAAAAAAAAAECAwQFERIhMUGRFDJRgaEGEyJCUnHhFkNh0fD/2gAMAwEAAhEDEQA/AO4oAgCAIAgCAIAgCAIAgCAIAgCAIAgCAIAgCAIAgCAh6esR3Nx3dPgdzMqQsMhHYPJPT1ABVqac3HwNdmFlXh4Wy+ZvT7EwrDIEAQBAEAQBAVze+8dP2XpsN7Uop5WTTeCYyAAuJwTnqR06ICg6nxhh1nT3QbdqXK873crpbDWjlGPm4J6+f5FnxFmxE9bK8LXZJ2292Jp7B3/oGjV9UY6K5YsxROszzsa3kc1pAw0l2SSXdyuYatxTlLixm2PWLtSh3Y8Cdpcc9q2JhHYh1Go0n9pLCHAf4uJ9y0nkkpu3iroO2LNSGaOzcFqu2xHLU5HNLHE4OS4d8IDxtni5tncGow0IzaqWZ3ckTbMYAc75BkEgH0oC/oAgCAIDhnH6w7U9zbe29E/q4hzmj6Ujw1v3H2oDltVsp5tIpfvFm54u3zgkD39B7VTKvasUnyN8cRsYJ1Li5emh4jLKlXXoon8zXcsDHfSb4UH/AEVxgJSfQacPC+trz2kXp9VdDG/mPWIMORjt3HdAVt9x1mWoLrnyQ12tiAB6iMOJwPaUBf8AaGk1d78SRe0aCrpOnV7EdnxQSAPDWY+K0d8kdcdBlAfTKAIAgMTrMDc800YI8rgqZ4mmvvzS80TVc3wRwF9mPcX/AKBZLzsdWp2cB3cAQt/7CWYiqqv3s5aR8TihJvRLeQHDunE7fOoalPgQaSyxbye3MMhnvOfUo24mqlRc33ty/kKEnrpyKEJCIzGOziCfVn81o0IlkbqOp7l0nRdqadSyym+RzRGSTI97sl7vIBlVXXV0Qdlj0SOqLk9EaugXKu294V7dmM3K9C0SWsIHheUkAjPnwVZF7STRwtvCWtZ1biSNchiFSlDNNPKR0YznDsRg/aHTyBU3YqijRWzS18ScYSl3VqfSbbMDvizRn0OC5XiqLO5NPzQdc1xRlWggY5yWwvc3uGkhRm2oto7HfJI5sNXp0GN8akPO/rhoySvz7sduIesEe7jsTXhtNs1Gbi0iGYy1qGJTnMjY2tJ9fdbFkuLnHSdi0+7Z85b7RYWEvhg30R5h3FUZ4RtfSoWCQYfgAc48+B1Vksksejla93+8TJ+o4yfw1ev4PbNQpu/lGnj0wA/guPK5L92XUsjm8pfIjbg1bwAIr1q0IPcRx8v3Kp5XCT+KTfmWLMrOSRpS2K4JI0+hn+3atEcAvrl1ZCWaWrkuhjduCzAzkijrtYOzWx4A9isWTUS3yb6mWefYmHBLp+TAdy25HNY6vE8kjDQCCfMrq8kojJNNnK/ajFcNhev9nYYi4xML28ri0ZHkK+nR6qba3nojKHTmPEXR79nX6bNM06aWN1f+DH+i08xzk9h3HdYL6ZbS2FuKb9qx6PeR9XYO4JiC+KtXB/qzZPsblWQqnpvPIsymU5a66EvV4b2s5tatE3zRQZ95Ks9wnxZ2OTJcZEtX4fU2D9dqNyT0crR9yj2WDNcMurjzZvM2VpDQOfxl/wBac/gnZKvAvWDqMvwM0H51Mu+tM8/ipqitcjvY6ecR8C9unvpkR+0781P3cfA52LD/AEoyU9p6HStR2qunsjmjOWO5nHB8uCcIoRT1RKOEojLaUVqTamaAgCAIAgCAIAgCAIAgCAIAgCAIAgCAIAgCA//Z;" vertex="1" parent="1">
          <mxGeometry x="280" y="120" width="40" height="40" as="geometry" />
        </mxCell>
        <mxCell id="qZJ-vaLKK2MRvVnL0MQR-5" value="Nome do Edil" style="text;html=1;strokeColor=none;fillColor=none;align=left;verticalAlign=middle;whiteSpace=wrap;rounded=0;" vertex="1" parent="1">
          <mxGeometry x="180" y="126" width="100" height="30" as="geometry" />
        </mxCell>
        <mxCell id="qZJ-vaLKK2MRvVnL0MQR-6" value="" style="shape=image;verticalLabelPosition=bottom;labelBackgroundColor=default;verticalAlign=top;aspect=fixed;imageAspect=0;image=data:image/png,iVBORw0KGgoAAAANSUhEUgAAAGQAAAA1CAMAAACA7r40AAABCFBMVEX///8lSqX7xwczvfIANJ4cRaPk5/IYQ6NyhL0iSKQAMZ1ugLwOP6ETQaLg5PB7i8Hv8fgAO6D/xwAAN5+psdSaps6Vocyvttfz9fnT2OlFYK5gdbfCyeGMmcgALJvywiExUqgAJprq9/21vtsQuPGt4PkbvPpWbbNhyPROw/PK0OU6WKuU1/f95615z/X+9Nz96rza8Pz94Jb/+OqFxc3/zS5GvefTxGb82HW7w4n+8dBjvtjGw3qWwK7jxUmQwbjH7P9wvsyuwpbw4sAAJ6ZHWJqAf5Tp1IfasjrMqkvBolW6nVzJq2z93YnTrkPjuDHdxVekwqL90ETlvlCpkmmGfn5gZpAAC5XABX4uAAAGOklEQVRYhbWYa3vaNhSAZbAxNvJF2AaDwSFAIIE0WdolaZctS7tu62Xd2t36///JdM6RfKEJ8HRPzocYyZJe69x0FMa+UiZDLe2vXWK3mI4SO3tEiKHEekSIaynxHhGyzLSMHw/ykEynF9MvOpN2EATtETVm2EhYDM+gNqTTSjvQGaS6ewyt9qxGOD1pzufz5vGR7nmCfzvctu0opq6ekA3eYQE8o54a2IFW7oeH8mELDWlh05tUGGfzppL5HDHnl91v4Nm2pIdwDfHAXSTEBr9xBwoCLdMPXflwbA0Ze+hc0UAjLppVmR8z9rTbaHSfbYc4fBskcsiDO5qB2zgpdrP49lIyGo3L7RDDWj4MGQkVJxF1pLT4lJ0S4uoaEVKeb4cYInkQsrQURM09JiUdTc8A0XzR1YxG93w7hMxyH6Tl6oh31qWyAAO7qCAaje927MRwnAcgONLB3ZjwIWeFwRc331cQ3ec7vAvE7twPsZHRB8NYkIbninD1w20V0UAP3updaNf+fRA0uxxoKdODthaLqx+vu1VE94XyvIchzhBeOaLV/hKSwSsxYmMbRsTsbnH18tVtlSAR1zeLnRAxWMNerGHHqkJ+On/G/NeRkMLY4LXpOj//8uTX20aNIFu3LxfN5k5INCAXclBtBUQqunHw5u279+9/e/rhw+9/HNCajUYN8REQe0FYvziaSohatEtfXl9cEbrf3yyaJxD/CoLreSoXgorBWzSEbH4P5GHpdg8+yWCc3zEJOWWVdZ0hNdChJLGAUM++ELmHg1c3C3TnY5kC5hesmoM4Hm8BN8hpSohv7gkB9X38dLMo032pLZZSfuCTIDCQAbm3hLBYbEAa3bofkVkurz+9lJHSPGLT4yL49UakvjglEMsizYheDcIyuw45f/L+7ZsDtZ/Lyz//evf3P/9O2gyyVvN4yqZFFjtlpUx0PqU8MmR1SLrhwukqj0zXPNTTR4fcthyTTWnhizvNOKswWDrhJUOs0w0IG5g1CHmcHZQfCR/BZ2x6MseD9559oMZMbkExaHGT6pt2xDk/1Adrz4WWPOPlQwgfWuVLnC37J/LXUbNQ1ckF25Qwzibcm2SxPvb6UuJQv6ZWGsOzP8BHXJncn0EHTr07gxg8Pv0S8b/EH81mK3/HoI6tK2dnGKywyyp65N7CytjAk31eaQ2Wju1ISBVGgsqxmEMF3qGBPCnGtcslHTsapjWItJJbqUJdA/qKyoutIq4SgmO78IGxUBB7E1JzYCsFSLVLLPXQPnkh72tN5ZWBTu7DTgw8TCkhbkIgFHEGDzYh2IWypn6d6FTBoqPYGu6AOMPlckhJRWiIJx3TUcGOIwdFGiP3DXNseVlG4yJ/O0SAQls2jBUhQXgSx8kQS1GbzFJUFxZd4FYCjdGSOMuWF5VotgOCVX2AP1OC5OVZrvSDG0FQVBYTVHX14Lay3AsCOoYFEeJWFpqg2eGn14Nl6CBdRaitdqt0v60QLxmsVniauKMaZFZ+7dBBHJxi1JGSTWyxHq/SPSCGJ2sPrFBA/aQuXIfqFXBiP8KN0ElKpg885b22ENlqN6RmUoTY8nrVIbdB7VBi9umoVPeFiVdEiRUt0z0hBs80xJDXKBUwHJTBtZrWpTJZkHtFTNmTXRAeRZFAz+1sBqMDZiLj4JZwIZ0ywmToCuXask7YCuH9sNUa4eJS3TWIY4202WVNGYahj75gFAuko7HjkWn2cWH8Wm+sIJzjHikS0ezSJq7rql8rVhGK0yjs74ZgCMshCBH9GRbajoBkPy6KPO0iGQsm6/V6gq7SwpLGbG2H4HdheGsImBbvnnBDYbazAZEZIeF4PEAsJt49O7GC1QilVSbIJaUMadICkmDOlH6LijQsm4RcJRlEZImgt8TX8lZWs4kMU5Q8LlO9cmUzrES8p2IRk7qVjUlwx4alSljH8miqt+FdWuT5U48Tw0yqaQXzlbwDozZMfZKTF4jVKq/OdLx0L4hj5wmr5S76WHW5K+xIySZj/byc7PHNk7ECyXJTiysoo7rQ+ExZ+LB4e9grID3s/dxi/jKX5aNteSLHSiKBF3nG2uWicmLMZBRq0YUJNpRu/OKtX9QPLC07whn8syhR/2UKfVqnsiiM+w/WI5aPjDzG0QAAAABJRU5ErkJggg==;" vertex="1" parent="1">
          <mxGeometry x="283.5" y="181" width="33" height="17.49" as="geometry" />
        </mxCell>
        <mxCell id="qZJ-vaLKK2MRvVnL0MQR-7" value="Nome do Edil" style="text;html=1;strokeColor=none;fillColor=none;align=left;verticalAlign=middle;whiteSpace=wrap;rounded=0;" vertex="1" parent="1">
          <mxGeometry x="180" y="175.75" width="100" height="30" as="geometry" />
        </mxCell>
        <mxCell id="qZJ-vaLKK2MRvVnL0MQR-8" value="" style="verticalLabelPosition=bottom;shadow=0;dashed=0;align=center;html=1;verticalAlign=top;strokeWidth=1;shape=mxgraph.mockup.containers.userMale;strokeColor=#666666;strokeColor2=#008cff;aspect=fixed;" vertex="1" parent="1">
          <mxGeometry x="120" y="169.75" width="40" height="40" as="geometry" />
        </mxCell>
        <mxCell id="qZJ-vaLKK2MRvVnL0MQR-9" value="" style="shape=image;verticalLabelPosition=bottom;labelBackgroundColor=default;verticalAlign=top;aspect=fixed;imageAspect=0;image=data:image/png,iVBORw0KGgoAAAANSUhEUgAAAHcAAAB3CAMAAAAO5y+4AAAAgVBMVEX////hFizfAADgABXgAB3fAA/gABjhEirgACD419ngBSPvnaHnX2nhCibfAAr30dP98/T1wsXrior2zM3wpantkJbxq67mWmD75uf53N3umJzrgojtipD87e7zuLz64ePiLDblTFbjMj7kQkvqd37qfH7obHHjOkTmVFrnZWjysrRqddikAAAFyklEQVRogdWb2ZaqOhCGm5ABsUFsxHZoERxweP8HPEFAhlSCgRX2Ov/FvrCXfKZCKlV/sr++/mfaRJaPL4upsaFDGWPY302LXTielYuR1aTc1LUKMXycELugViV7PiE3qrnebUJuwt5c5mwnwzbCzAM93ZsVNbkTBroRZi6ymQh7JE2sZa8n4q5pi+v+TsRNvRbXQhNxURtr+ctJsLHf4TrXSbgXt8NldBKuzzpcC02xDYfd6bUs/DcBd+8IXDZFyjoJYeaBNr8Jb8Uw85RlvtyJKMD1zKesuwdwze8Nm27SKOSb3htWBOS6D8PcRzdZlSspORjFbixgFeVCZveGJbSKcjmZUW4mJqsy0KfAIDaAklUhEhrkhvDbnIua3Bv2WMo1Ws7Kw8z7hpkx7EI+XKN9w9xWcL2zMW4iD3P+Zplq0ObQFljLVP2+RMrh8hneG6AGc7GO7IpkutvwIl6vcs1r7V7/cEVR9Lf/TVTvVCVs3bPLZb//4+Jf20X59/ljVqXW69WzsXHNUuQTQmxQNBd2ewf7EvMczEUr1Y8hpVDyfGMdeFM1I4bKhR6cpsTmnleR2Z5wyWROTrHgfqcdLh8we+3VimRviOsd/xH3lVHPYCVulPtawzt5EdGQ57muV4o1PuUfC+p5lFvsXIekf8DMu/+Wut/vN5sWaDflH3wLkhV/5bMqPyR0esFt1zWYRUleAriS4hVokRtY8n5WaKl/Ie9/uk7C4duW9/lPxcwxv1GXbM49WZ+IDkaGpdxYznVpu97dyxoBKffLYlKuNAPa524ftUSqSYa4T1uXyxBQGWxuiljbkFOENOPs2mDzFlzkhQyFiuMzvsDcP7Detc8y92WNZbGuuAdegcyr33B12DlN77/f+6onu36nXGACZP5F3rnNbpKSEZesJ6I2qfzXCOf5iicsVLoMISpSGvAADyudiCCDX4mKu85nDh3e3DIaZSaQt2341NfF7MBJbnODLre0r5YyLnn0d8chBfJ6I87UruL8U3HxTjlehqJeKldwFr9ecQ95LVqF7J2GcaQar/txS/4nxBpD03OrXiAl179/7kAsu7GGuME7tSq4H8a40iYlvdy13c91XV1/ad+KNcAN6q5UyiVnfd9ybXtKblanGAmXoUEHHrMTlnMPWYMBc3tSlFzBw4a5wTaymqkf5Dq9KUquH9Lhbn72l0fqINpaaBDXSccYeJUvaL/zlcPLWWF1i1yWjPINN3bBoM38LOjNrSsHFI/B8gEXCYQuPuHGby6zRtqk5Z5ja3JHH3SUxyeTc0snlOhy7yO55XlCxV2BNafzU/z1Wc/vuNf561CuGVK+nhewoXHLfNgw9NA4G7w6T2DJT64rXG8y6/r6s1MvbDzuLPo9PubkkrlYzH39ufGJdx4T6OA22INAY2zwhbpbU2nUeYPiPKFPo2zwEZbLmHtKs+HD5Utv+HmD8jyhT146mDvK2WJs6KH/kY1y8sizHwFKZct8oMHnHPdxRi3Dw1JWgEcaprCd0at4zNucy5HYHz2SnjF/KmYP4hJlmJmDUKeMFiS4i58oVB47uN4l3M52J+XRHdbqQUvBJlQpOy2yb3BVRYUlA7iyGxP58/za74upIqkh/Tb0KN96vdZFvmMiDwzV3xt20qfhpDOKTPoTB5Sz3UuSlRgSTfa11MtFuikrkIzB86Fsv00k77X23iC5d0RvcLkWZPDpsOwEQqoM2hOYn0njNrdBF9bTC3TgAD/fU95lhw9HNO8pQfeOsKXuPQ53YG4077Bexd9u9/t9e3GS2U0n0OK9I/BIQlBMhEnW6huES5Luh/O0Ea4faF2t7N6BJcKxj1TXjpeLdS51tLmfxbjS0/cGc1s35z2q5wltW5sy0jILG9cV6Um30QkedawZ07rgOKtWBE9RmtRcdfJCmv9tptxiXDysuwqTVxHMkHZJGSaUEHoe2rUHGeZfx0PuJy/ieIxXcIzjpck7lcP0H/WgW5iLSqYTAAAAAElFTkSuQmCC;" vertex="1" parent="1">
          <mxGeometry x="284.88" y="219.88" width="30.25" height="30.25" as="geometry" />
        </mxCell>
        <mxCell id="qZJ-vaLKK2MRvVnL0MQR-10" value="Nome do Edil" style="text;html=1;strokeColor=none;fillColor=none;align=left;verticalAlign=middle;whiteSpace=wrap;rounded=0;" vertex="1" parent="1">
          <mxGeometry x="180" y="225.88" width="100" height="30" as="geometry" />
        </mxCell>
        <mxCell id="qZJ-vaLKK2MRvVnL0MQR-11" value="" style="verticalLabelPosition=bottom;shadow=0;dashed=0;align=center;html=1;verticalAlign=top;strokeWidth=1;shape=mxgraph.mockup.containers.userMale;strokeColor=#666666;strokeColor2=#008cff;aspect=fixed;" vertex="1" parent="1">
          <mxGeometry x="120" y="219.88" width="40" height="40" as="geometry" />
        </mxCell>
        <mxCell id="qZJ-vaLKK2MRvVnL0MQR-14" value="" style="shape=image;verticalLabelPosition=bottom;labelBackgroundColor=default;verticalAlign=top;aspect=fixed;imageAspect=0;image=data:image/png,iVBORw0KGgoAAAANSUhEUgAAAIIAAACCCAMAAAC93eDPAAAA81BMVEUAWqv/////1QUCpVT/1wYAVakAT6eNrNAAWKr+//z/2QDq7vX/3AAAW6oARaEAWKwAUqhEebrh6vUAUrBMgLsAolcAVa7v9PcAULF1kMQATLYATbEAS6Zbf7rZwUQAplG/tVAAP6O0x+DV3uznzS3t1AWzxCsrqU+LuznNzR2SvTPg0xVVskKjwTXUxDa7tkqnpGWXmnGJk4R5iohvgolvf45re5F6in6MlXKfoWmzq1/KuUhkskC0sFI5bpRScpI2aKR9ujhDa59egIlKrEceYKNZeo9Fb7WkudjF0uZ9msbGuzZdhrqmql8tabZOcJkAL5xfpudEAAAJ7ElEQVR4nM2aD3ubOBLGUWphYVsWGBeMDW1i4nb39upLmuz2TzabNr0Ew1F3v/+nuREkjhFCcnpxuHnSxAUs/ZgZvRoJjIOadX7eFm/evnz94pFmPCnCQW/xy2MJZAj/g3WA/9e3L9tEKDB6/3gcw9MjHBz0fvvnYyAaELhH4X7urIjz5rMWAS5+9/rli13zUo5QdDZYLP91cvr+7Pz3P7idn3/4+OnzxfEADEh0jvjzJ73Q4bfQG/SOL0/P/ppMp9OJ63kehh8Gfz13MptNp/Tq/cnFgnOoPNF783rHaFQR4NaPLz7dUs91PWwYBoV/BjG2DI4QDFzGl7PPy8VA4Y3O4uuLF7tQbBB4tDvLkz9u3IlHGDXUxhhxJ/T6w+WiM2iggKT59e1jvNAZDJanV7x7TedbRpg7I9++Q0yaKBa/7OAGo8j+3uDVRzp1PUN7+1WDq73Z9NslRKTBE7/9WwvBEXrHJz9cjz2q822DzHi/lEPAUH6nG5xGr7f8cDPxfrp/boy57Nshl486AxcqDcLF7+7kEfFvdsXs+lLuiV7nzUtVNIwJe2T8G43Nbj5LNQsm8a8Khqfp/R7CvT6UClanpxifT4oA4XBvl02OeNFQzTwxgkG96fvFQJoS4Agpw1MjgGC59GQgm087vXdSwX56BMPA7u2xTDAbhGofCJAS9FJaWBSOEGfQ/SAYbHq7kA+NxZ+iI/aEYBjuzYV09qqPz70hEEY+SasJcMTX50HgankmL2mgonr5PAgGda+lI4M7Ymto7BOBGN6XC3lp1zl49ywIYJ5x0VDMPCw29Lcit50uNnhCHEqlkgsV1Nivd0CAOlVm2ByauF5nVS8qi4DZ90GxOqgj9Mo5XEeQ9OU2Sld5YuLKxebK377E79oFlnfSVN4eFGtgDQKOkCUzZCGE/DSvQIRp9ZrMLm9jctnI0IMaW4NgZ0hpo3y4hRBXT0b3fNPDRgaYwzUI4UqNgNDcwPeFH+1XzvjJfdJifDiQpUOZEhqE4VyHgEbr0t8GSfzKif56M248+qrZDzqEkY7AQn1SDg0cWVU29jB0PSKdOHdAILhvNXS93VcpEzioHo7DrZa860WTGzReWPvyXqu2Kjqzu9Wj83B7deCeNW2OaBCSnRCsIvdNIXVX5jYCmXySVrXaQATyPkVLh9DbMK0evJOFjc3+I08HNQLWyMLGHGzQIyF1o6p2MuLK00GNYFbDy1VRnp4ruOMjIWiJMIdQ97wjUwc1QijIQjcqLBshgWRkQqVWPeTXm5ucyKoHNcJQkFzHxtzsYS1AlOGxQMXEGZ0ybylJByUBFX1L71olgnBbaGzXZMGuN+j9JRFJjRcE35r3JwgRIpGZ4ow2NyUNup/qblASkLXg202rkP5Vhq5p12RB1qR3XHODEkEMb/rgW1EEVqGrkYXyptzzmhuUCKJvV1sIQqKuQrOpWqgymIcigxpBUP3uBoEO/WogMtsUUnctRaDeD3GuUCKYgixkD7ngCcqQ22b1WmQ27CJOvvce44VqeC3n/sZIKMgmSjCtEvjDpn08TxiYKgKCY6vSz/quosdhLtwywtipHhgdNTUrDkylF3A1vH5YArBxrZzr12QhDZtaZdfVbFAAwPxbCbhl+aUVHqna3KxXC40Nzz4PdkXwEvFmmwxqlmrqWlujp+7cahGnQnB3rRbQaGhgQRYC6ZgsG55UtEGBQIRqodkHfLTSKoIlV6bSvKsdEWrVQqPFJjHWwjpmrdpbd7eX/EqEuKFL0QsJNrCQN33l4x3vdrBbIMTwNgCAMhLDjqpHR0NFyzAothJSeWFf3qlAEHAFMEVZUCNMvg92QWD6RQTIw8gpBEBM3VWjMnEj+OpBpRXX4Uje77b5XVZmfq3QbVamwmbLXRBscR3zsHlR1vJWf5WYd890xPohaFamwiYfBzsgiOEV7j9dRXa4SftQyBuVLHBjP3o7INR86zzY2h6G25s8ZF0tYR62N5oQvFf3yxrFVWJ56Jh4Y+IaQUzd0Vr32HNyOtgBQVgjqm5M3N6IqxuAsm/8NdAGggrFoFJyq+tfC6V/D6tWz077WOsFJmxvjFTRFWXBHwmW19LTvezpEERZSFWqr53R6iPEe69FEGVBukDbIKTynhVR9K71CKLkqhB0O3M+riHQ6d1U1dyqKy4iFHrHQk0cZBPn9K5oUNyYKAsKvWNU3vPGYgmCe6pDmAm+VYkNceQ9b0w2cXrnpTg1Nytub6hmX3F7o2ayKLIfC10gqo30VTWImLo1k02c5OZY7QUxvHGoCIS4/q1ZJNOU2Ss1gqhMc1UgTLUsWL4j45+Vy4nGVu2usJNjK943MTWy0Jfm8uRUjYDzbsUi1exLumrLpN9yPww0c4RZMWUVRE2lhaZ0enFvNQj7t7virU0E/EWDwKA+I7zkZ+Vn/pSLH4JP5RlIWbt8HIP5ZfwMHCbFReUX+CnGf8mneXJTTFTNBM547JgM34wdzJJ8PA49ODIe0/GY8T8mJEuWUZAcAkcIzZ01HDZsyi9af4FfIaO2M04IcfKGPkptakQotrr62IuhXCqqAb+sUBPk3xSDNHT4qM1tg6I+34BOi9otKqS6y1cVI6gRLK4nI0Slw4nRpRIBx1aeoiwCXUmG8HmOuskcraIIpTma55a1jlEwtnwDOygNQaG7K5R10Qp+Esfsowi+cNRF1ihc9yXVQhEI45UKAdO+76QoSNEKjY98v2hxjqJhwHvpHsEpv893XNdmwLdeof85SmMLrhvF6RHynTnKjvw4RTixYvmLhBqE8tlc37HiDHWLGctfgwwnUKdCX/kMEKw49EaAsIKgQO0Yxda879MUxekc8y+MKMDNkcO9JPcCUXshQXHk/M2nHyu1UQx3aeKRn8CEBPHJsyI1nADFHvTejewYJb7vwFUxchLeK+csZLubozRyZH4AL/QUCDYEPLTXqJ84lj9G6RqykoHWhzGKisdCWZjxR1WRXWyERL5fPDjwc7629OH21yiGFE2gfz6RSwtPwpQIOMkcxpwsMs0gSLLIDgKDZDlMoME6AEtMw4y6WQKDMg+CzMgCWhzG/HcOX4YvRHCaBpGTBYG06tN4gTKblbpEQV7gM/b4p0JnsG1jyk/YxcyB4f/M9hiBwyBNNhiDRWex9AR38tN2gzap0/EZDALROoJGHZ/B2P8Bwhf1NPUcCNet1wte+yULu2q9cLvb+GsV4aT1QMwuWkeYLjUr672bdlm7f8NXnbYRvA+9thHu32xpEeEuG9tEcHttI+Ar7dbnvs392DqCd6h/HrFfI2zRNsLDA9vWEB5eYmiLgMLCvuVAbD2ubQth9nmX55T7NOIdt43gnXd2eWa9T5ttvc3SDgGju73FsUe7fybUHgIh2y9etoLgnW2/3vVf7Pj9mryBPpkAAAAASUVORK5CYII=;" vertex="1" parent="1">
          <mxGeometry x="285.01" y="270" width="30" height="30" as="geometry" />
        </mxCell>
      </root>
    </mxGraphModel>
  </diagram>
</mxfile>
